<svg xmlns="http://www.w3.org/2000/svg" width="105" height="36" fill="none" viewBox="0 0 105 36">
  <mask id="mask0" width="105" height="35" x="0" y="1" maskUnits="userSpaceOnUse">
    <path fill="white" fill-rule="evenodd" d="M0.464844 1.30762H104.996V35.9998H0.464844V1.30762Z" clip-rule="evenodd"/>
  </mask>
  <g mask="url(#mask0)">
    <path fill="#28234A" fill-rule="evenodd" d="M17.86 35.964C24.2797 35.964 25.894 33.3716 25.894 29.8204C25.894 25.4523 21.9686 24.6357 18.7037 24.1029C16.2091 23.6768 15.0719 23.4639 15.0719 21.9368C15.0719 20.8006 16.0623 20.3742 17.6766 20.3742C19.6575 20.3742 20.2077 20.9425 20.3913 22.6114L25.6005 21.8302C25.1601 18.2435 23.1424 16.4326 17.8232 16.4326C11.9905 16.4326 9.93611 18.7763 9.93611 22.5048C9.89954 27.3346 14.4484 27.8318 17.8232 28.3998C19.9141 28.7906 20.7215 29.1456 20.7215 30.5307C20.7215 31.667 20.0245 32.1642 17.9333 32.1642C15.6222 32.1642 14.9252 31.7736 14.6318 29.8915L9.56934 30.6372C10.0462 34.437 12.2839 35.964 17.86 35.964Z" clip-rule="evenodd"/>
    <path fill="#28234A" fill-rule="evenodd" d="M34.6525 32.0579C32.1944 32.0579 31.3142 31.5253 31.3142 29.7496C31.3142 28.1516 32.1944 27.5124 34.8359 27.5124H37.4771V29.359C37.4771 31.1345 36.5968 32.0579 34.6525 32.0579ZM32.3779 35.9645C35.2393 35.9645 36.5234 35.0411 37.4405 33.6916V35.7159H42.6128V22.8605C42.6128 18.5637 40.962 16.3975 35.2393 16.3975C29.6999 16.3975 27.7557 17.9599 26.9853 21.7953L32.1212 22.5765C32.4512 20.943 32.9282 20.4456 35.0559 20.4456C37.1103 20.4456 37.4405 21.2979 37.4405 22.7187V24.0327H35.0192C28.4527 24.0327 26.2148 26.0211 26.2148 30.0695C26.2148 34.0468 28.2326 35.9645 32.3779 35.9645Z" clip-rule="evenodd"/>
    <path fill="#28234A" fill-rule="evenodd" d="M43.9334 35.7156H49.2162V8.31689L43.9334 13.5542V35.7156Z" clip-rule="evenodd"/>
    <path fill="#28234A" fill-rule="evenodd" d="M55.673 24.1386V23.18C55.673 21.511 56.4434 20.3743 58.7545 20.3743C60.9923 20.3743 61.7262 21.3334 61.7262 23.18V24.1386H55.673ZM58.7536 36C64.8434 36 66.4575 33.1589 66.8243 30.318L61.7986 29.5723C61.5785 31.2769 61.2483 32.1646 58.7536 32.1646C56.2226 32.1646 55.6721 30.9217 55.6721 29.2882V27.7258H66.8243V24.3166C66.8243 19.558 64.9533 16.3975 58.7536 16.3975C52.6274 16.3975 50.5363 19.5936 50.5363 23.642V28.7556C50.5363 32.6974 52.664 36 58.7536 36Z" clip-rule="evenodd"/>
    <path fill="#28234A" fill-rule="evenodd" d="M76.619 36.0001C82.6719 36.0001 85.1663 32.9106 85.1663 28.7557V23.6421C85.1663 19.4162 82.6719 16.3975 76.619 16.3975C70.5658 16.3975 68.1448 19.4162 68.1448 23.6421V28.7557C68.1448 32.9106 70.5292 36.0001 76.619 36.0001ZM76.6185 31.8806C74.4906 31.8806 73.4269 30.7799 73.4269 29.0042V23.5355C73.4269 21.7245 74.4906 20.6236 76.6185 20.6236C78.7462 20.6236 79.8833 21.7245 79.8833 23.5355V29.0042C79.8833 30.7799 78.7462 31.8806 76.6185 31.8806Z" clip-rule="evenodd"/>
    <path fill="#28234A" fill-rule="evenodd" d="M94.6011 21.8167H91.7698V35.6044H86.4872V21.8167H86.4871L91.6482 16.5796H99.7623L94.6011 21.8167Z" clip-rule="evenodd"/>
  </g>
  <path fill="#8AC4EB" fill-rule="evenodd" d="M24.3322 0L17.3795 7.24426H34.5549L41.5075 0H24.3322Z" clip-rule="evenodd"/>
  <path fill-rule="evenodd" stroke="#28234A" stroke-linecap="round" stroke-linejoin="round" stroke-width="1.2182" d="M9.96292 2.99756L3.4494 9.49242H26.0387L32.5522 2.99756H9.96292Z" clip-rule="evenodd"/>
</svg>
